<svg width="352" height="217" viewBox="0 0 352 217" fill="none" xmlns="http://www.w3.org/2000/svg">
<path d="M39.3302 71.208L5.60828 33.2913C-5.86179 20.3945 3.29342 0 20.5529 0H241.243C258.445 0 267.621 20.2765 256.268 33.1998L191.742 106.651C183.766 115.73 169.622 115.716 161.665 106.621L142.525 84.7469C138.727 80.4064 133.241 77.9167 127.473 77.9167H54.2748C48.5639 77.9167 43.1255 75.4753 39.3302 71.208Z" fill="#00B4D8"/>
<path d="M124.062 84.3254H95.9654C78.7701 84.3254 69.591 104.589 80.9308 117.515L161.669 209.549C169.629 218.623 183.752 218.631 191.723 209.566L346.8 33.2069C358.162 20.2856 348.987 0 331.781 0H304.022C298.309 0 292.868 2.4438 289.072 6.71484L191.386 116.644C183.397 125.633 169.338 125.59 161.404 116.552L139.093 91.1321C135.295 86.8057 129.818 84.3254 124.062 84.3254Z" fill="#00B4D8"/>
</svg>
